# xmcd CD database file
#
# Track frame offsets:
#	150
#	49587
#	134793
#	198155
#
# Disc length: 3251 seconds
#
# Revision: 0
# Processed by: cddbd v1.5PL3 Copyright (c) Steve Scherf et al.
# Submitted via: CDex 1.50
#
DISCID=350cb104
DTITLE=Pat Metheny Trio - Tokyo, 01/28/92 [CD2]
DYEAR=1992
DGENRE=Jazz
TTITLE0=Lonely Woman
TTITLE1=The Calling
TTITLE2=All The Things You Are
TTITLE3=Cantaloupe Island
EXTD=YEAR: 1992
EXTT0=
EXTT1=
EXTT2=
EXTT3=
PLAYORDER=
